<?xml version="1.0" encoding="UTF-8" standalone="no"?>
<svg
   xmlns:dc="http://purl.org/dc/elements/1.1/"
   xmlns:cc="http://creativecommons.org/ns#"
   xmlns:rdf="http://www.w3.org/1999/02/22-rdf-syntax-ns#"
   xmlns:svg="http://www.w3.org/2000/svg"
   xmlns="http://www.w3.org/2000/svg"
   id="svg8"
   version="1.1"
   viewBox="0 0 210 297"
   height="297mm"
   width="210mm">
  <defs
     id="defs2">
    <filter
       height="1.048"
       y="-0.024"
       width="1.048"
       x="-0.024"
       id="filter6322"
       style="color-interpolation-filters:sRGB">
      <feGaussianBlur
         id="feGaussianBlur6324"
         stdDeviation="0.0199988" />
    </filter>
  </defs>
  <metadata
     id="metadata5">
    <rdf:RDF>
      <cc:Work
         rdf:about="">
        <dc:format>image/svg+xml</dc:format>
        <dc:type
           rdf:resource="http://purl.org/dc/dcmitype/StillImage" />
        <dc:title></dc:title>
      </cc:Work>
    </rdf:RDF>
  </metadata>
  <g
     id="layer1">
    <path
       transform="scale(0.26458333)"
       id="path829"
       d="M 457.32227 132.69727 C 323.14786 132.69727 188.97461 172.87305 188.97461 253.22656 L 279.6875 253.22656 L 279.6875 527.24609 L 188.97461 527.24609 L 188.97461 706.96094 L 207.75 706.96094 L 207.75 744.75781 L 188.97461 744.75781 L 188.97461 933.54297 L 188.97461 952.31641 L 207.72461 952.31641 L 207.72461 990.11328 L 188.97461 990.11328 L 188.97461 1082.9219 L 725.67188 1082.9219 L 725.67188 990.38867 L 706.86719 990.38867 L 706.86719 952.5918 L 725.67188 952.5918 L 725.67188 933.61719 C 725.67188 933.59227 725.67383 933.5679 725.67383 933.54297 L 725.67188 933.54297 L 725.67188 744.31055 L 707.02344 744.31055 L 707.02344 706.51367 L 725.67188 706.51367 L 725.67188 527.24609 L 634.96094 527.24609 L 634.96094 253.22656 L 725.67188 253.22656 C 725.67188 172.87305 591.49663 132.69727 457.32227 132.69727 z "
       style="fill:none;stroke:#000000;stroke-width:0.75590551;stroke-linecap:butt;stroke-linejoin:miter;stroke-miterlimit:4;stroke-dasharray:none;stroke-opacity:1" />
    <path
       id="path903"
       d="m 135.25028,98.250371 h 3.75068 v -6.74997 h 5.9986 v 6.74997 h 3.75067 v 6.499889 h -3.75067 v 6.74998 h -5.9986 v -6.74998 h -3.75068 v -6.499889"
       style="fill:none;stroke:#000000;stroke-width:0.2;stroke-linecap:butt;stroke-linejoin:miter;stroke-miterlimit:4;stroke-dasharray:none;stroke-opacity:1" />
    <path
       style="fill:none;stroke:#000000;stroke-width:0.2;stroke-linecap:butt;stroke-linejoin:miter;stroke-miterlimit:4;stroke-dasharray:none;stroke-opacity:1"
       d="m 93.250122,98.250371 h 3.750676 v -6.74997 h 5.998602 v 6.74997 h 3.75067 v 6.499889 h -3.75067 v 6.74996 h -5.998602 v -6.74996 h -3.750676 v -6.499889"
       id="path905" />
    <rect
       y="115.49996"
       x="93.263702"
       height="11.500073"
       width="2.7502196"
       id="rect13625"
       style="fill:none;fill-opacity:1;stroke:#000000;stroke-width:0.2;stroke-miterlimit:4;stroke-dasharray:none;stroke-opacity:1" />
    <rect
       style="fill:none;fill-opacity:1;stroke:#000000;stroke-width:0.2;stroke-miterlimit:4;stroke-dasharray:none;stroke-opacity:1"
       id="rect13627"
       width="2.7502196"
       height="11.500073"
       x="145.99522"
       y="115.49996" />
    <circle
       r="1.47523"
       cy="90.519661"
       cx="161.00241"
       id="path3295"
       style="fill:none;fill-opacity:1;stroke:#000000;stroke-width:0.2;stroke-miterlimit:4;stroke-dasharray:none;stroke-opacity:1" />
    <circle
       style="fill:none;fill-opacity:1;stroke:#000000;stroke-width:0.2;stroke-miterlimit:4;stroke-dasharray:none;stroke-opacity:1"
       id="circle3297"
       cx="161.00133"
       cy="175.97594"
       r="1.47523" />
    <rect
       y="187.0005"
       x="74.000648"
       height="10.000423"
       width="4.9774737"
       id="rect3311"
       style="fill:none;fill-opacity:1;stroke:#000000;stroke-width:0.2;stroke-miterlimit:4;stroke-dasharray:none;stroke-opacity:1" />
    <rect
       style="fill:none;fill-opacity:1;stroke:#000000;stroke-width:0.2;stroke-miterlimit:4;stroke-dasharray:none;stroke-opacity:1"
       id="rect3313"
       width="4.9774737"
       height="10.000423"
       x="163.0226"
       y="187.0005" />
    <rect
       y="252.00119"
       x="74.000648"
       height="10.000423"
       width="4.9774737"
       id="rect3315"
       style="fill:none;fill-opacity:1;stroke:#000000;stroke-width:0.2;stroke-miterlimit:4;stroke-dasharray:none;stroke-opacity:1" />
    <rect
       style="fill:none;fill-opacity:1;stroke:#000000;stroke-width:0.2;stroke-miterlimit:4;stroke-dasharray:none;stroke-opacity:1"
       id="rect3317"
       width="4.9774737"
       height="10.000423"
       x="163.0226"
       y="252.00119" />
    <circle
       style="fill:none;fill-opacity:1;stroke:#000000;stroke-width:0.2;stroke-miterlimit:4;stroke-dasharray:none;stroke-opacity:1"
       id="circle3333"
       cx="106.03649"
       cy="155.84517"
       r="1.47523" />
    <circle
       r="1.47523"
       cy="155.84572"
       cx="136.04465"
       id="circle3335"
       style="fill:none;fill-opacity:1;stroke:#000000;stroke-width:0.2;stroke-miterlimit:4;stroke-dasharray:none;stroke-opacity:1" />
    <circle
       style="fill:none;fill-opacity:1;stroke:#000000;stroke-width:0.2;stroke-miterlimit:4;stroke-dasharray:none;stroke-opacity:1"
       id="circle3337"
       cx="136.03148"
       cy="182.8459"
       r="1.47523" />
    <circle
       r="1.47523"
       cy="182.84468"
       cx="106.0308"
       id="circle3339"
       style="fill:none;fill-opacity:1;stroke:#000000;stroke-width:0.2;stroke-miterlimit:4;stroke-dasharray:none;stroke-opacity:1" />
    <path
       d="m 130.13461,76.257408 a 9.2495642,9.2495642 0 0 1 -4.62478,8.010358 9.2495642,9.2495642 0 0 1 -9.24956,0 9.2495642,9.2495642 0 0 1 -4.62479,-8.010358 l 9.24957,0 z"
       style="fill:none;fill-opacity:1;stroke:#000000;stroke-width:0.2;stroke-miterlimit:4;stroke-dasharray:none;stroke-opacity:1"
       id="path3349" />
    <path
       id="rect3410"
       d="m 94.536582,91.569436 a 1.188533,1.188533 0 0 0 -1.188534,1.187288 1.188533,1.188533 0 0 0 0,0.0016 v 3.315734 h 8.06e-4 a 1.188533,1.188533 0 0 0 1.1877,1.158978 1.188533,1.188533 0 0 0 1.187284,-1.158978 h 0.0012 v -3.315734 a 1.188533,1.188533 0 0 0 0,-0.0016 1.188533,1.188533 0 0 0 -1.188533,-1.187288 z"
       style="fill:none;fill-opacity:1;stroke:#000000;stroke-width:0.16117391;stroke-linecap:square;stroke-linejoin:miter;stroke-miterlimit:4;stroke-dasharray:none;stroke-opacity:1" />
    <path
       style="fill:none;fill-opacity:1;stroke:#000000;stroke-width:0.16117391;stroke-linecap:square;stroke-linejoin:miter;stroke-miterlimit:4;stroke-dasharray:none;stroke-opacity:1"
       d="m 105.52001,91.599672 a 1.188533,1.188533 0 0 0 -1.18853,1.187288 1.188533,1.188533 0 0 0 0,0.0016 v 3.315734 h 8.1e-4 a 1.188533,1.188533 0 0 0 1.1877,1.158978 1.188533,1.188533 0 0 0 1.18728,-1.158978 h 0.001 V 92.78856 a 1.188533,1.188533 0 0 0 0,-0.0016 1.188533,1.188533 0 0 0 -1.18853,-1.187288 z"
       id="path3419" />
    <path
       id="path3425"
       d="m 136.57673,91.506128 a 1.188533,1.188533 0 0 0 -1.18853,1.187288 1.188533,1.188533 0 0 0 0,0.0016 v 3.315734 h 8.1e-4 a 1.188533,1.188533 0 0 0 1.1877,1.158978 1.188533,1.188533 0 0 0 1.18728,-1.158978 h 0.001 v -3.315734 a 1.188533,1.188533 0 0 0 0,-0.0016 1.188533,1.188533 0 0 0 -1.18853,-1.187288 z"
       style="fill:none;fill-opacity:1;stroke:#000000;stroke-width:0.16117391;stroke-linecap:square;stroke-linejoin:miter;stroke-miterlimit:4;stroke-dasharray:none;stroke-opacity:1" />
    <path
       style="fill:none;fill-opacity:1;stroke:#000000;stroke-width:0.16117391;stroke-linecap:square;stroke-linejoin:miter;stroke-miterlimit:4;stroke-dasharray:none;stroke-opacity:1"
       d="m 147.43268,91.584311 a 1.188533,1.188533 0 0 0 -1.18853,1.187288 1.188533,1.188533 0 0 0 0,0.0016 v 3.315734 h 8.1e-4 a 1.188533,1.188533 0 0 0 1.1877,1.158978 1.188533,1.188533 0 0 0 1.18728,-1.158978 h 10e-4 v -3.315734 a 1.188533,1.188533 0 0 0 0,-0.0016 1.188533,1.188533 0 0 0 -1.18853,-1.187288 z"
       id="path3427" />
    <rect
       transform="rotate(90)"
       y="-82.003784"
       x="267.03543"
       height="7.9995122"
       width="3.9987226"
       id="rect3320"
       style="fill:none;fill-opacity:1;stroke:#000000;stroke-width:0.2;stroke-linecap:square;stroke-linejoin:miter;stroke-miterlimit:4;stroke-dasharray:none;stroke-opacity:1" />
    <rect
       style="fill:none;fill-opacity:1;stroke:#000000;stroke-width:0.2;stroke-linecap:square;stroke-linejoin:miter;stroke-miterlimit:4;stroke-dasharray:none;stroke-opacity:1"
       id="rect3322"
       width="3.9987226"
       height="7.9995122"
       x="238.00536"
       y="-81.95134"
       transform="rotate(90)" />
    <rect
       style="fill:none;fill-opacity:1;stroke:#000000;stroke-width:0.2;stroke-linecap:square;stroke-linejoin:miter;stroke-miterlimit:4;stroke-dasharray:none;stroke-opacity:1"
       id="rect3324"
       width="3.9987226"
       height="7.9995122"
       x="224.05719"
       y="-81.970711"
       transform="rotate(90)" />
    <rect
       transform="rotate(90)"
       y="-82.036858"
       x="210.06224"
       height="7.9995122"
       width="3.9987226"
       id="rect3326"
       style="fill:none;fill-opacity:1;stroke:#000000;stroke-width:0.2;stroke-linecap:square;stroke-linejoin:miter;stroke-miterlimit:4;stroke-dasharray:none;stroke-opacity:1" />
    <rect
       style="fill:none;fill-opacity:1;stroke:#000000;stroke-width:0.2;stroke-linecap:square;stroke-linejoin:miter;stroke-miterlimit:4;stroke-dasharray:none;stroke-opacity:1"
       id="rect3328"
       width="3.9987226"
       height="7.9995122"
       x="267.17258"
       y="-168.12865"
       transform="rotate(90)" />
    <rect
       transform="rotate(90)"
       y="-167.9877"
       x="238.08009"
       height="7.9995122"
       width="3.9987226"
       id="rect3330"
       style="fill:none;fill-opacity:1;stroke:#000000;stroke-width:0.2;stroke-linecap:square;stroke-linejoin:miter;stroke-miterlimit:4;stroke-dasharray:none;stroke-opacity:1" />
    <rect
       transform="rotate(90)"
       y="-168.15874"
       x="224.05719"
       height="7.9995122"
       width="3.9987226"
       id="rect3332"
       style="fill:none;fill-opacity:1;stroke:#000000;stroke-width:0.2;stroke-linecap:square;stroke-linejoin:miter;stroke-miterlimit:4;stroke-dasharray:none;stroke-opacity:1" />
    <rect
       style="fill:none;fill-opacity:1;stroke:#000000;stroke-width:0.2;stroke-linecap:square;stroke-linejoin:miter;stroke-miterlimit:4;stroke-dasharray:none;stroke-opacity:1"
       id="rect3334"
       width="3.9987226"
       height="7.9995122"
       x="210.01999"
       y="-168.00671"
       transform="rotate(90)" />
    <rect
       style="fill:none;fill-opacity:1;stroke:#000000;stroke-width:0.2;stroke-linecap:square;stroke-linejoin:miter;stroke-miterlimit:4;stroke-dasharray:none;stroke-opacity:1"
       id="rect3348"
       width="3.9987226"
       height="7.9995122"
       x="159.06923"
       y="-168.0027"
       transform="rotate(90)" />
    <rect
       style="fill:none;fill-opacity:1;stroke:#000000;stroke-width:0.2;stroke-linecap:square;stroke-linejoin:miter;stroke-miterlimit:4;stroke-dasharray:none;stroke-opacity:1"
       id="rect3352"
       width="3.9987226"
       height="7.9995122"
       x="172.94759"
       y="-82.031799"
       transform="rotate(90)" />
    <rect
       transform="rotate(90)"
       y="-82.027786"
       x="158.99173"
       height="7.9995122"
       width="3.9987226"
       id="rect3354"
       style="fill:none;fill-opacity:1;stroke:#000000;stroke-width:0.2;stroke-linecap:square;stroke-linejoin:miter;stroke-miterlimit:4;stroke-dasharray:none;stroke-opacity:1" />
    <circle
       r="0.99993998"
       cy="52.110653"
       cx="110.47902"
       id="path3370"
       style="fill:none;fill-opacity:1;stroke:#000000;stroke-width:0.2;stroke-linecap:square;stroke-linejoin:miter;stroke-miterlimit:4;stroke-dasharray:none;stroke-opacity:1" />
    <circle
       style="fill:none;fill-opacity:1;stroke:#000000;stroke-width:0.2;stroke-linecap:square;stroke-linejoin:miter;stroke-miterlimit:4;stroke-dasharray:none;stroke-opacity:1"
       id="circle3372"
       cx="131.49838"
       cy="52.135166"
       r="0.99993998" />
    <circle
       r="0.99993998"
       cy="64.64109"
       cx="131.49837"
       id="circle3374"
       style="fill:none;fill-opacity:1;stroke:#000000;stroke-width:0.2;stroke-linecap:square;stroke-linejoin:miter;stroke-miterlimit:4;stroke-dasharray:none;stroke-opacity:1;filter:url(#filter6322)" />
    <circle
       style="fill:none;fill-opacity:1;stroke:#000000;stroke-width:0.2;stroke-linecap:square;stroke-linejoin:miter;stroke-miterlimit:4;stroke-dasharray:none;stroke-opacity:1"
       id="circle3376"
       cx="110.51398"
       cy="64.617653"
       r="0.99993998" />
    <flowRoot
       transform="scale(0.26458333)"
       style="font-style:normal;font-weight:normal;font-size:40px;line-height:1.25;font-family:sans-serif;letter-spacing:0px;word-spacing:0px;fill:#000000;fill-opacity:1;stroke:#0000e5;stroke-opacity:1;"
       id="flowRoot10547"
       xml:space="preserve"><flowRegion
         style="stroke:#0000e5;stroke-opacity:1;"
         id="flowRegion10549"><rect
           style="stroke:#0000e5;stroke-opacity:1;"
           y="724.51965"
           x="926"
           height="44"
           width="266"
           id="rect10551" /></flowRegion><flowPara
         id="flowPara10553">AAr</flowPara></flowRoot>    <circle
       style="fill:none;fill-opacity:1;stroke:#000000;stroke-width:0.2;stroke-linecap:square;stroke-linejoin:miter;stroke-miterlimit:4;stroke-dasharray:none;stroke-dashoffset:0;stroke-opacity:1"
       id="circle6584"
       cx="158.00093"
       cy="76.99456"
       r="1.4748449" />
    <circle
       r="1.4748449"
       cy="144.44034"
       cx="187.00186"
       id="circle6586"
       style="fill:none;fill-opacity:1;stroke:#000000;stroke-width:0.2;stroke-linecap:square;stroke-linejoin:miter;stroke-miterlimit:4;stroke-dasharray:none;stroke-dashoffset:0;stroke-opacity:1" />
    <circle
       style="fill:none;fill-opacity:1;stroke:#000000;stroke-width:0.2;stroke-linecap:square;stroke-linejoin:miter;stroke-miterlimit:4;stroke-dasharray:none;stroke-dashoffset:0;stroke-opacity:1"
       id="circle6588"
       cx="55.010975"
       cy="144.43626"
       r="1.4748449" />
    <circle
       style="fill:none;fill-opacity:1;stroke:#000000;stroke-width:0.2;stroke-linecap:square;stroke-linejoin:miter;stroke-miterlimit:4;stroke-dasharray:none;stroke-dashoffset:0;stroke-opacity:1"
       id="circle6353"
       cx="84.00695"
       cy="77.007004"
       r="1.4748449" />
    <path
       id="path1763"
       d="m 122.50911,53.680377 h -0.0134 a 1.5003633,1.5003633 0 0 0 -1.48675,-1.31207 1.5003633,1.5003633 0 0 0 -1.48722,1.31207 h -0.0134 v 0.1881 12.25352 h 0.002 a 1.5003633,1.5003633 0 0 0 -0.002,0.0305 1.5003633,1.5003633 0 0 0 1.50066,1.50017 1.5003633,1.5003633 0 0 0 1.50019,-1.50017 1.5003633,1.5003633 0 0 0 -0.001,-0.0305 h 0.001 v -12.25352 z"
       style="opacity:0.7;fill:none;fill-opacity:1;stroke:#000000;stroke-width:0.2;stroke-miterlimit:4;stroke-dasharray:none;stroke-opacity:1" />
    <rect
       ry="1.4996326"
       y="281.63531"
       x="123.74044"
       height="2.9992652"
       width="10.004559"
       id="rect1786"
       style="opacity:0.7;fill:none;fill-opacity:1;stroke:#000000;stroke-width:0.2;stroke-miterlimit:4;stroke-dasharray:none;stroke-opacity:1" />
    <rect
       style="opacity:0.7;fill:none;fill-opacity:1;stroke:#000000;stroke-width:0.2;stroke-miterlimit:4;stroke-dasharray:none;stroke-opacity:1"
       id="rect1788"
       width="10.004559"
       height="2.9992652"
       x="108.31792"
       y="281.64075"
       ry="1.4996326" />
  </g>
</svg>
