<?xml version="1.0" encoding="UTF-8" standalone="no"?>
<svg
   xmlns:dc="http://purl.org/dc/elements/1.1/"
   xmlns:cc="http://creativecommons.org/ns#"
   xmlns:rdf="http://www.w3.org/1999/02/22-rdf-syntax-ns#"
   xmlns:svg="http://www.w3.org/2000/svg"
   xmlns="http://www.w3.org/2000/svg"
   id="svg5752"
   version="1.1"
   viewBox="0 0 210 297"
   height="297mm"
   width="210mm">
  <defs
     id="defs5746" />
  <metadata
     id="metadata5749">
    <rdf:RDF>
      <cc:Work
         rdf:about="">
        <dc:format>image/svg+xml</dc:format>
        <dc:type
           rdf:resource="http://purl.org/dc/dcmitype/StillImage" />
        <dc:title></dc:title>
      </cc:Work>
    </rdf:RDF>
  </metadata>
  <g
     id="layer2">
    <path
       id="path6470"
       transform="scale(0.26458333)"
       d="M 430.33203 169.93359 C 296.23763 169.93359 162.14258 179.36784 162.14258 198.23438 L 162.14258 548.09766 L 162.14258 585.82617 L 698.51953 585.82617 L 698.51953 548.09766 L 698.51953 198.23438 C 698.51953 179.36784 564.42643 169.93359 430.33203 169.93359 z "
       style="fill:none;stroke:#000000;stroke-width:0.99999994px;stroke-linecap:butt;stroke-linejoin:miter;stroke-opacity:1" />
    <circle
       r="1.4748449"
       cy="69.914948"
       cx="141.85176"
       id="path6496"
       style="fill:none;fill-opacity:1;stroke:#000000;stroke-width:0.2;stroke-linecap:square;stroke-linejoin:miter;stroke-miterlimit:4;stroke-dasharray:none;stroke-dashoffset:0;stroke-opacity:1" />
    <circle
       style="fill:none;fill-opacity:1;stroke:#000000;stroke-width:0.2;stroke-linecap:square;stroke-linejoin:miter;stroke-miterlimit:4;stroke-dasharray:none;stroke-dashoffset:0;stroke-opacity:1"
       id="circle6498"
       cx="85.863937"
       cy="69.91288"
       r="1.4748449" />
    <circle
       r="1.4748449"
       cy="139.90067"
       cx="93.865204"
       id="circle6500"
       style="fill:none;fill-opacity:1;stroke:#000000;stroke-width:0.2;stroke-linecap:square;stroke-linejoin:miter;stroke-miterlimit:4;stroke-dasharray:none;stroke-dashoffset:0;stroke-opacity:1" />
    <circle
       style="fill:none;fill-opacity:1;stroke:#000000;stroke-width:0.2;stroke-linecap:square;stroke-linejoin:miter;stroke-miterlimit:4;stroke-dasharray:none;stroke-dashoffset:0;stroke-opacity:1"
       id="circle6502"
       cx="133.87361"
       cy="139.90205"
       r="1.4748449" />
    <circle
       style="fill:none;fill-opacity:1;stroke:#000000;stroke-width:0.2;stroke-linecap:square;stroke-linejoin:miter;stroke-miterlimit:4;stroke-dasharray:none;stroke-dashoffset:0;stroke-opacity:1"
       id="circle6520"
       cx="179.85822"
       cy="129.91827"
       r="1.4748449" />
    <circle
       r="1.4748449"
       cy="129.94244"
       cx="47.834808"
       id="circle6526"
       style="fill:none;fill-opacity:1;stroke:#000000;stroke-width:0.2;stroke-linecap:square;stroke-linejoin:miter;stroke-miterlimit:4;stroke-dasharray:none;stroke-dashoffset:0;stroke-opacity:1" />
    <circle
       r="6.0275359"
       cy="129.9073"
       cx="113.87108"
       id="path6534"
       style="fill:none;fill-opacity:1;stroke:#000000;stroke-width:0.2;stroke-linecap:square;stroke-linejoin:miter;stroke-miterlimit:4;stroke-dasharray:none;stroke-dashoffset:0;stroke-opacity:1" />
    <rect
       transform="rotate(90)"
       y="-66.854538"
       x="108.44598"
       height="7.9995122"
       width="3.9987226"
       id="rect3354-3"
       style="fill:none;fill-opacity:1;stroke:#000000;stroke-width:0.2;stroke-linecap:square;stroke-linejoin:miter;stroke-miterlimit:4;stroke-dasharray:none;stroke-opacity:1" />
    <rect
       style="fill:none;fill-opacity:1;stroke:#000000;stroke-width:0.2;stroke-linecap:square;stroke-linejoin:miter;stroke-miterlimit:4;stroke-dasharray:none;stroke-opacity:1"
       id="rect6592"
       width="3.9987226"
       height="7.9995122"
       x="122.44627"
       y="-66.854538"
       transform="rotate(90)" />
    <rect
       transform="rotate(90)"
       y="-66.854538"
       x="80.447693"
       height="7.9995122"
       width="3.9987226"
       id="rect6594"
       style="fill:none;fill-opacity:1;stroke:#000000;stroke-width:0.2;stroke-linecap:square;stroke-linejoin:miter;stroke-miterlimit:4;stroke-dasharray:none;stroke-opacity:1" />
    <rect
       style="fill:none;fill-opacity:1;stroke:#000000;stroke-width:0.2;stroke-linecap:square;stroke-linejoin:miter;stroke-miterlimit:4;stroke-dasharray:none;stroke-opacity:1"
       id="rect6596"
       width="3.9987226"
       height="7.9995122"
       x="94.446838"
       y="-66.854538"
       transform="rotate(90)" />
    <circle
       style="fill:none;fill-opacity:1;stroke:#000000;stroke-width:0.2;stroke-linecap:square;stroke-linejoin:miter;stroke-miterlimit:4;stroke-dasharray:none;stroke-dashoffset:0;stroke-opacity:1"
       id="circle6355"
       cx="76.843254"
       cy="62.440498"
       r="1.4748449" />
    <circle
       r="1.4748449"
       cy="62.444756"
       cx="150.89001"
       id="circle6357"
       style="fill:none;fill-opacity:1;stroke:#000000;stroke-width:0.2;stroke-linecap:square;stroke-linejoin:miter;stroke-miterlimit:4;stroke-dasharray:none;stroke-dashoffset:0;stroke-opacity:1" />
    <g
       transform="translate(29.372922,-142.00025)"
       id="g3102">
      <g
         transform="rotate(90,11.428394,287.15663)"
         id="g3107">
        <path
           id="rect3060"
           d="m -56.683594,1122.5195 v 94.4922 h -3.140625 c -1.939,0 -3.5,1.561 -3.5,3.5 v 11.9063 c 0,1.939 1.561,3.5 3.5,3.5 h 44.023438 c 1.939,0 3.5,-1.561 3.5,-3.5 v -11.9063 c 0,-1.939 -1.561,-3.5 -3.5,-3.5 h -3.085938 v -94.4922 z"
           style="opacity:0.7;fill:none;fill-opacity:1;stroke:#000000;stroke-width:0.75590551;stroke-miterlimit:4;stroke-dasharray:none;stroke-opacity:1"
           transform="scale(0.26458333)" />
        <circle
           r="1.5001669"
           cy="301.59375"
           cx="-10.007523"
           id="path3087"
           style="opacity:0.7;fill:none;fill-opacity:1;stroke:#000000;stroke-width:0.2;stroke-miterlimit:4;stroke-dasharray:none;stroke-opacity:1" />
        <rect
           transform="rotate(90)"
           ry="1.2800914"
           y="8.7219486"
           x="315.49911"
           height="2.5601828"
           width="5.001245"
           id="rect3089"
           style="opacity:0.7;fill:none;fill-opacity:1;stroke:#000000;stroke-width:0.19473076;stroke-miterlimit:4;stroke-dasharray:none;stroke-opacity:1" />
      </g>
      <g
         id="g3115"
         transform="rotate(90,21.428814,277.15621)">
        <path
           transform="scale(0.26458333)"
           style="opacity:0.7;fill:none;fill-opacity:1;stroke:#000000;stroke-width:0.75590551;stroke-miterlimit:4;stroke-dasharray:none;stroke-opacity:1"
           d="m -56.683594,1122.5195 v 94.4922 h -3.140625 c -1.939,0 -3.5,1.561 -3.5,3.5 v 11.9063 c 0,1.939 1.561,3.5 3.5,3.5 h 44.023438 c 1.939,0 3.5,-1.561 3.5,-3.5 v -11.9063 c 0,-1.939 -1.561,-3.5 -3.5,-3.5 h -3.085938 v -94.4922 z"
           id="path3109" />
        <circle
           style="opacity:0.7;fill:none;fill-opacity:1;stroke:#000000;stroke-width:0.2;stroke-miterlimit:4;stroke-dasharray:none;stroke-opacity:1"
           id="circle3111"
           cx="-10.007523"
           cy="301.59375"
           r="1.5001669" />
        <rect
           style="opacity:0.7;fill:none;fill-opacity:1;stroke:#000000;stroke-width:0.19473076;stroke-miterlimit:4;stroke-dasharray:none;stroke-opacity:1"
           id="rect3113"
           width="5.001245"
           height="2.5601828"
           x="315.49911"
           y="8.7219486"
           ry="1.2800914"
           transform="rotate(90)" />
      </g>
      <g
         id="g3123"
         transform="rotate(-90,-47.341806,273.07413)">
        <path
           transform="scale(0.26458333)"
           style="opacity:0.7;fill:none;fill-opacity:1;stroke:#000000;stroke-width:0.75590551;stroke-miterlimit:4;stroke-dasharray:none;stroke-opacity:1"
           d="m -56.683594,1122.5195 v 94.4922 h -3.140625 c -1.939,0 -3.5,1.561 -3.5,3.5 v 11.9063 c 0,1.939 1.561,3.5 3.5,3.5 h 44.023438 c 1.939,0 3.5,-1.561 3.5,-3.5 v -11.9063 c 0,-1.939 -1.561,-3.5 -3.5,-3.5 h -3.085938 v -94.4922 z"
           id="path3117" />
        <circle
           style="opacity:0.7;fill:none;fill-opacity:1;stroke:#000000;stroke-width:0.2;stroke-miterlimit:4;stroke-dasharray:none;stroke-opacity:1"
           id="circle3119"
           cx="-10.007523"
           cy="301.59375"
           r="1.5001669" />
        <rect
           style="opacity:0.7;fill:none;fill-opacity:1;stroke:#000000;stroke-width:0.19473076;stroke-miterlimit:4;stroke-dasharray:none;stroke-opacity:1"
           id="rect3121"
           width="5.001245"
           height="2.5601828"
           x="315.49911"
           y="8.7219486"
           ry="1.2800914"
           transform="rotate(90)" />
      </g>
      <g
         transform="rotate(-90,-37.341379,283.07455)"
         id="g3131">
        <path
           id="path3125"
           d="m -56.683594,1122.5195 v 94.4922 h -3.140625 c -1.939,0 -3.5,1.561 -3.5,3.5 v 11.9063 c 0,1.939 1.561,3.5 3.5,3.5 h 44.023438 c 1.939,0 3.5,-1.561 3.5,-3.5 v -11.9063 c 0,-1.939 -1.561,-3.5 -3.5,-3.5 h -3.085938 v -94.4922 z"
           style="opacity:0.7;fill:none;fill-opacity:1;stroke:#000000;stroke-width:0.75590551;stroke-miterlimit:4;stroke-dasharray:none;stroke-opacity:1"
           transform="scale(0.26458333)" />
        <circle
           r="1.5001669"
           cy="301.59375"
           cx="-10.007523"
           id="circle3127"
           style="opacity:0.7;fill:none;fill-opacity:1;stroke:#000000;stroke-width:0.2;stroke-miterlimit:4;stroke-dasharray:none;stroke-opacity:1" />
        <rect
           transform="rotate(90)"
           ry="1.2800914"
           y="8.7219486"
           x="315.49911"
           height="2.5601828"
           width="5.001245"
           id="rect3129"
           style="opacity:0.7;fill:none;fill-opacity:1;stroke:#000000;stroke-width:0.19473076;stroke-miterlimit:4;stroke-dasharray:none;stroke-opacity:1" />
      </g>
    </g>
  </g>
</svg>
