<?xml version="1.0" encoding="UTF-8" standalone="no"?>
<svg
   xmlns:dc="http://purl.org/dc/elements/1.1/"
   xmlns:cc="http://creativecommons.org/ns#"
   xmlns:rdf="http://www.w3.org/1999/02/22-rdf-syntax-ns#"
   xmlns:svg="http://www.w3.org/2000/svg"
   xmlns="http://www.w3.org/2000/svg"
   id="svg924"
   version="1.1"
   viewBox="0 0 210 297"
   height="297mm"
   width="210mm">
  <defs
     id="defs918" />
  <metadata
     id="metadata921">
    <rdf:RDF>
      <cc:Work
         rdf:about="">
        <dc:format>image/svg+xml</dc:format>
        <dc:type
           rdf:resource="http://purl.org/dc/dcmitype/StillImage" />
        <dc:title></dc:title>
      </cc:Work>
    </rdf:RDF>
  </metadata>
  <g
     id="layer1">
    <g
       transform="rotate(90,174.55802,123.85298)"
       id="g1539">
      <g
         id="g1561">
        <path
           d="m -72.683945,-149.21632 a 4.9996948,4.9996948 0 0 1 -2.499847,4.32986 4.9996948,4.9996948 0 0 1 -4.999695,0 4.9996948,4.9996948 0 0 1 -2.499847,-4.32986 l 4.999694,0 z"
           id="path1523"
           style="opacity:0.7;fill:none;fill-opacity:1;stroke:#000000;stroke-width:0.2;stroke-miterlimit:4;stroke-dasharray:none;stroke-opacity:1"
           transform="scale(-1)" />
        <circle
           style="opacity:0.7;fill:none;fill-opacity:1;stroke:#000000;stroke-width:0.2;stroke-miterlimit:4;stroke-dasharray:none;stroke-opacity:1"
           id="path1553"
           cx="77.684143"
           cy="146.71452"
           r="0.60051501" />
      </g>
    </g>
    <path
       id="rect1571"
       transform="scale(0.26458333)"
       d="M 377.95312 83.152344 L 377.95312 240.08203 L 390.04297 240.08203 L 390.04297 253.23047 L 460.34375 253.23047 L 460.34375 240.08203 L 472.44141 240.08203 L 472.44141 83.152344 L 377.95312 83.152344 z "
       style="opacity:0.7;fill:none;fill-opacity:1;stroke:#000000;stroke-width:0.75590551;stroke-miterlimit:4;stroke-dasharray:none;stroke-opacity:1" />
    <circle
       r="0.99993998"
       cy="23.993433"
       cx="102.00455"
       id="path1579"
       style="opacity:0.7;fill:none;fill-opacity:1;stroke:#000000;stroke-width:0.2;stroke-miterlimit:4;stroke-dasharray:none;stroke-opacity:1" />
    <circle
       style="opacity:0.7;fill:none;fill-opacity:1;stroke:#000000;stroke-width:0.2;stroke-miterlimit:4;stroke-dasharray:none;stroke-opacity:1"
       id="circle1581"
       cx="123.00128"
       cy="24.001419"
       r="0.99993998" />
    <circle
       style="opacity:0.7;fill:none;fill-opacity:1;stroke:#000000;stroke-width:0.2;stroke-miterlimit:4;stroke-dasharray:none;stroke-opacity:1"
       id="circle1585"
       cx="102.00248"
       cy="36.501198"
       r="0.99993998" />
    <circle
       r="0.99993998"
       cy="36.502674"
       cx="122.998"
       id="circle1587"
       style="opacity:0.7;fill:none;fill-opacity:1;stroke:#000000;stroke-width:0.2;stroke-miterlimit:4;stroke-dasharray:none;stroke-opacity:1" />
    <rect
       y="57.000179"
       x="102.00101"
       height="4.652945"
       width="20.999229"
       id="rect1607"
       style="opacity:0.7;fill:none;fill-opacity:1;stroke:#000000;stroke-width:0.2;stroke-miterlimit:4;stroke-dasharray:none;stroke-opacity:1" />
    <rect
       y="22.000761"
       x="128.02553"
       height="39.999626"
       width="19.005562"
       id="rect1619"
       style="opacity:0.7;fill:none;fill-opacity:1;stroke:#000000;stroke-width:0.17021124;stroke-miterlimit:4;stroke-dasharray:none;stroke-opacity:1" />
    <rect
       y="25.19862"
       x="129.8313"
       height="33.619637"
       width="15.391376"
       id="rect1637"
       style="opacity:0.7;fill:none;fill-opacity:1;stroke:#000000;stroke-width:0.17021124;stroke-miterlimit:4;stroke-dasharray:none;stroke-opacity:1" />
    <rect
       transform="scale(-1)"
       y="-78.771446"
       x="-125.00012"
       height="10.00146"
       width="25.000021"
       id="rect1683"
       style="opacity:0.7;fill:none;fill-opacity:1;stroke:#000000;stroke-width:0.2;stroke-miterlimit:4;stroke-dasharray:none;stroke-opacity:1" />
    <g
       id="g1709"
       transform="rotate(90,143.27214,133.59162)">
      <g
         id="g1707">
        <path
           transform="scale(-1)"
           style="opacity:0.7;fill:none;fill-opacity:1;stroke:#000000;stroke-width:0.2;stroke-miterlimit:4;stroke-dasharray:none;stroke-opacity:1"
           id="path1703"
           d="m -72.683945,-149.21632 a 4.9996948,4.9996948 0 0 1 -2.499847,4.32986 4.9996948,4.9996948 0 0 1 -4.999695,0 4.9996948,4.9996948 0 0 1 -2.499847,-4.32986 l 4.999694,0 z" />
        <circle
           r="0.60051501"
           cy="146.71452"
           cx="77.684143"
           id="circle1705"
           style="opacity:0.7;fill:none;fill-opacity:1;stroke:#000000;stroke-width:0.2;stroke-miterlimit:4;stroke-dasharray:none;stroke-opacity:1" />
      </g>
    </g>
    <g
       transform="rotate(90,150.39538,140.71486)"
       id="g1717">
      <g
         id="g1715">
        <path
           d="m -72.683945,-149.21632 a 4.9996948,4.9996948 0 0 1 -2.499847,4.32986 4.9996948,4.9996948 0 0 1 -4.999695,0 4.9996948,4.9996948 0 0 1 -2.499847,-4.32986 l 4.999694,0 z"
           id="path1711"
           style="opacity:0.7;fill:none;fill-opacity:1;stroke:#000000;stroke-width:0.2;stroke-miterlimit:4;stroke-dasharray:none;stroke-opacity:1"
           transform="scale(-1)" />
        <circle
           style="opacity:0.7;fill:none;fill-opacity:1;stroke:#000000;stroke-width:0.2;stroke-miterlimit:4;stroke-dasharray:none;stroke-opacity:1"
           id="circle1713"
           cx="77.684143"
           cy="146.71452"
           r="0.60051501" />
      </g>
    </g>
    <g
       id="g1725"
       transform="rotate(90,146.96714,137.28662)">
      <g
         id="g1723">
        <path
           transform="scale(-1)"
           style="opacity:0.7;fill:none;fill-opacity:1;stroke:#000000;stroke-width:0.2;stroke-miterlimit:4;stroke-dasharray:none;stroke-opacity:1"
           id="path1719"
           d="m -72.683945,-149.21632 a 4.9996948,4.9996948 0 0 1 -2.499847,4.32986 4.9996948,4.9996948 0 0 1 -4.999695,0 4.9996948,4.9996948 0 0 1 -2.499847,-4.32986 l 4.999694,0 z" />
        <circle
           r="0.60051501"
           cy="146.71452"
           cx="77.684143"
           id="circle1721"
           style="opacity:0.7;fill:none;fill-opacity:1;stroke:#000000;stroke-width:0.2;stroke-miterlimit:4;stroke-dasharray:none;stroke-opacity:1" />
      </g>
    </g>
    <g
       id="g1733"
       transform="rotate(-90,59.518083,54.665697)">
      <g
         id="g1731">
        <path
           transform="scale(-1)"
           style="opacity:0.7;fill:none;fill-opacity:1;stroke:#000000;stroke-width:0.2;stroke-miterlimit:4;stroke-dasharray:none;stroke-opacity:1"
           id="path1727"
           d="m -72.683945,-149.21632 a 4.9996948,4.9996948 0 0 1 -2.499847,4.32986 4.9996948,4.9996948 0 0 1 -4.999695,0 4.9996948,4.9996948 0 0 1 -2.499847,-4.32986 l 4.999694,0 z" />
        <circle
           r="0.60051501"
           cy="146.71452"
           cx="77.684143"
           id="circle1729"
           style="opacity:0.7;fill:none;fill-opacity:1;stroke:#000000;stroke-width:0.2;stroke-miterlimit:4;stroke-dasharray:none;stroke-opacity:1" />
      </g>
    </g>
    <g
       transform="rotate(-90,64.699237,60.033933)"
       id="g1741">
      <g
         id="g1739">
        <path
           d="m -72.683945,-149.21632 a 4.9996948,4.9996948 0 0 1 -2.499847,4.32986 4.9996948,4.9996948 0 0 1 -4.999695,0 4.9996948,4.9996948 0 0 1 -2.499847,-4.32986 l 4.999694,0 z"
           id="path1735"
           style="opacity:0.7;fill:none;fill-opacity:1;stroke:#000000;stroke-width:0.2;stroke-miterlimit:4;stroke-dasharray:none;stroke-opacity:1"
           transform="scale(-1)" />
        <circle
           style="opacity:0.7;fill:none;fill-opacity:1;stroke:#000000;stroke-width:0.2;stroke-miterlimit:4;stroke-dasharray:none;stroke-opacity:1"
           id="circle1737"
           cx="77.684143"
           cy="146.71452"
           r="0.60051501" />
      </g>
    </g>
    <g
       id="g1749"
       transform="rotate(-90,69.939151,65.273835)">
      <g
         id="g1747">
        <path
           transform="scale(-1)"
           style="opacity:0.7;fill:none;fill-opacity:1;stroke:#000000;stroke-width:0.2;stroke-miterlimit:4;stroke-dasharray:none;stroke-opacity:1"
           id="path1743"
           d="m -72.683945,-149.21632 a 4.9996948,4.9996948 0 0 1 -2.499847,4.32986 4.9996948,4.9996948 0 0 1 -4.999695,0 4.9996948,4.9996948 0 0 1 -2.499847,-4.32986 l 4.999694,0 z" />
        <circle
           r="0.60051501"
           cy="146.71452"
           cx="77.684143"
           id="circle1745"
           style="opacity:0.7;fill:none;fill-opacity:1;stroke:#000000;stroke-width:0.2;stroke-miterlimit:4;stroke-dasharray:none;stroke-opacity:1" />
      </g>
    </g>
    <g
       transform="rotate(-90,75.269583,70.417178)"
       id="g1757">
      <g
         id="g1755">
        <path
           d="m -72.683945,-149.21632 a 4.9996948,4.9996948 0 0 1 -2.499847,4.32986 4.9996948,4.9996948 0 0 1 -4.999695,0 4.9996948,4.9996948 0 0 1 -2.499847,-4.32986 l 4.999694,0 z"
           id="path1751"
           style="opacity:0.7;fill:none;fill-opacity:1;stroke:#000000;stroke-width:0.2;stroke-miterlimit:4;stroke-dasharray:none;stroke-opacity:1"
           transform="scale(-1)" />
        <circle
           style="opacity:0.7;fill:none;fill-opacity:1;stroke:#000000;stroke-width:0.2;stroke-miterlimit:4;stroke-dasharray:none;stroke-opacity:1"
           id="circle1753"
           cx="77.684143"
           cy="146.71452"
           r="0.60051501" />
      </g>
    </g>
    <rect
       ry="1.5016376"
       y="69.611877"
       x="106.58685"
       height="3.0032752"
       width="11.830173"
       id="rect1790"
       style="opacity:0.7;fill:none;fill-opacity:1;stroke:#000000;stroke-width:0.1901547;stroke-miterlimit:4;stroke-dasharray:none;stroke-opacity:1" />
  </g>
</svg>
