<?xml version="1.0" encoding="UTF-8" standalone="no"?>
<svg
   xmlns:dc="http://purl.org/dc/elements/1.1/"
   xmlns:cc="http://creativecommons.org/ns#"
   xmlns:rdf="http://www.w3.org/1999/02/22-rdf-syntax-ns#"
   xmlns:svg="http://www.w3.org/2000/svg"
   xmlns="http://www.w3.org/2000/svg"
   xmlns:sodipodi="http://sodipodi.sourceforge.net/DTD/sodipodi-0.dtd"
   xmlns:inkscape="http://www.inkscape.org/namespaces/inkscape"
   version="1.1"
   width="595.27557"
   height="841.88977"
   id="svg851"
   viewBox="0 0 595.27557 841.88977"
   sodipodi:docname="camera.svg"
   inkscape:version="0.92.4 (unknown)">
  <metadata
     id="metadata857">
    <rdf:RDF>
      <cc:Work
         rdf:about="">
        <dc:format>image/svg+xml</dc:format>
        <dc:type
           rdf:resource="http://purl.org/dc/dcmitype/StillImage" />
        <dc:title />
      </cc:Work>
    </rdf:RDF>
  </metadata>
  <defs
     id="defs855" />
  <sodipodi:namedview
     pagecolor="#ffffff"
     bordercolor="#666666"
     borderopacity="1"
     objecttolerance="10"
     gridtolerance="10"
     guidetolerance="10"
     inkscape:pageopacity="0"
     inkscape:pageshadow="2"
     inkscape:window-width="1853"
     inkscape:window-height="1025"
     id="namedview853"
     showgrid="false"
     inkscape:zoom="2.8284271"
     inkscape:cx="451.12354"
     inkscape:cy="577.07095"
     inkscape:window-x="67"
     inkscape:window-y="27"
     inkscape:window-maximized="1"
     inkscape:current-layer="svg851"
     showguides="true"
     inkscape:guide-bbox="true">
    <sodipodi:guide
       position="189.84766,814.38672"
       orientation="1,0"
       id="guide1756"
       inkscape:locked="false" />
    <sodipodi:guide
       position="229.41797,814.17187"
       orientation="1,0"
       id="guide1758"
       inkscape:locked="false" />
    <sodipodi:guide
       position="150.30078,814.17187"
       orientation="1,0"
       id="guide1760"
       inkscape:locked="false" />
    <sodipodi:guide
       position="238.69273,788.22519"
       orientation="0,1"
       id="guide1762"
       inkscape:locked="false" />
    <sodipodi:guide
       position="117.33594,741.30859"
       orientation="0,1"
       id="guide1764"
       inkscape:locked="false" />
    <sodipodi:guide
       position="301.10937,559.58984"
       orientation="0,1"
       id="guide1789"
       inkscape:locked="false" />
    <sodipodi:guide
       position="302.1914,501.06641"
       orientation="0,1"
       id="guide1791"
       inkscape:locked="false" />
    <sodipodi:guide
       position="328.23437,547.27344"
       orientation="1,0"
       id="guide1795"
       inkscape:locked="false" />
    <sodipodi:guide
       position="474.8001,614.4316"
       orientation="1,0"
       id="guide1823"
       inkscape:locked="false" />
  </sodipodi:namedview>
  <path
     d="m 291.9813,68.0126 a 2.8345,2.8345 0 0 1 -2.8345,2.8345 2.8345,2.8345 0 1 1 2.8345,-2.8345 z"
     style="fill:#ffffff;fill-opacity:0;fill-rule:evenodd;stroke:#000000;stroke-width:0.56690001;stroke-linecap:butt;stroke-linejoin:miter;stroke-dasharray:none"
     id="path817"
     inkscape:connector-curvature="0" />
  <path
     d="m 351.4997,68.0353 a 2.8345,2.8345 0 0 1 -2.8345,2.8345 2.8345,2.8345 0 1 1 2.8345,-2.8345 z"
     style="fill:#ffffff;fill-opacity:0;fill-rule:evenodd;stroke:#000000;stroke-width:0.56690001;stroke-linecap:butt;stroke-linejoin:miter;stroke-dasharray:none"
     id="path819"
     inkscape:connector-curvature="0" />
  <path
     d="m 291.9756,103.4678 a 2.8345,2.8345 0 0 1 -2.8345,2.8345 2.8345,2.8345 0 1 1 2.8345,-2.8345 z"
     style="fill:#ffffff;fill-opacity:0;fill-rule:evenodd;stroke:#000000;stroke-width:0.56690001;stroke-linecap:butt;stroke-linejoin:miter;stroke-dasharray:none"
     id="path821"
     inkscape:connector-curvature="0" />
  <path
     d="m 351.4904,103.4721 a 2.8345,2.8345 0 0 1 -2.8345,2.8345 2.8345,2.8345 0 1 1 2.8345,-2.8345 z"
     style="fill:#ffffff;fill-opacity:0;fill-rule:evenodd;stroke:#000000;stroke-width:0.56690001;stroke-linecap:butt;stroke-linejoin:miter;stroke-dasharray:none"
     id="path823"
     inkscape:connector-curvature="0" />
  <path
     d="M 362.9069,175.7492 V 62.3645 h 53.8742 v 113.3847 z"
     style="fill:#ffffff;fill-opacity:0;fill-rule:evenodd;stroke:#000000;stroke-width:0.56690001;stroke-linecap:butt;stroke-linejoin:miter;stroke-dasharray:none"
     id="path827"
     inkscape:connector-curvature="0" />
  <path
     d="M 369.3932,151.8262 V 86.3317 h 40.8943 v 65.4945 z"
     style="fill:#ffffff;fill-opacity:0;fill-rule:evenodd;stroke:#000000;stroke-width:0.56690001;stroke-linecap:butt;stroke-linejoin:miter;stroke-dasharray:none"
     id="path829"
     inkscape:connector-curvature="0" />
  <path
     d="m 358.4205,194.9386 v 28.3507 h -79.0452 v -28.3507 z"
     style="fill:#ffffff;fill-opacity:0;fill-rule:evenodd;stroke:#000000;stroke-width:0.56690001;stroke-linecap:butt;stroke-linejoin:miter;stroke-dasharray:none"
     id="path831"
     inkscape:connector-curvature="0" />
  <path
     d="m 306.3926,201.8251 h 25.0211 c 2.3505,0 4.2565,1.906 4.2565,4.2565 v 0 c 0,2.3505 -1.906,4.2565 -4.2565,4.2565 l -25.0211,3e-4 c -2.3505,-3e-4 -4.2565,-1.9063 -4.2565,-4.2568 v 0 c 0,-2.3505 1.906,-4.2565 4.2565,-4.2565 z"
     style="fill:#ffffff;fill-opacity:0;fill-rule:evenodd;stroke:#000000;stroke-width:0.53909999;stroke-linecap:butt;stroke-linejoin:miter;stroke-dasharray:none"
     id="path833"
     inkscape:connector-curvature="0" />
  <path
     d="m 380.2941,211.902 c 0,2e-4 0,2e-4 0,2e-4 -5.0633,0 -9.7455,-2.7028 -12.2755,-7.0877 -1.2424,-2.1509 -1.8983,-4.5995 -1.8983,-7.0861 0,-2.4865 0.6559,-4.9351 1.8983,-7.0877 2.53,-4.3832 7.2122,-7.0861 12.2755,-7.0861 0,0 0,0 0,0 v 14.1738 z"
     style="fill:none;fill-rule:evenodd;stroke:#000000;stroke-width:0.56690001;stroke-linecap:square;stroke-linejoin:miter;stroke-dasharray:none"
     id="path835"
     inkscape:connector-curvature="0" />
  <path
     d="m 400.9771,212.6976 c 0,3e-4 0,3e-4 0,3e-4 -5.0633,0 -9.7455,-2.7028 -12.2755,-7.0877 -1.2424,-2.151 -1.8983,-4.5995 -1.8983,-7.0861 0,-2.4865 0.6559,-4.9351 1.8983,-7.0877 2.53,-4.3832 7.2122,-7.0861 12.2755,-7.0861 0,0 0,0 0,0 v 14.1738 z"
     style="fill:none;fill-rule:evenodd;stroke:#000000;stroke-width:0.56690001;stroke-linecap:square;stroke-linejoin:miter;stroke-dasharray:none"
     id="path837"
     inkscape:connector-curvature="0" />
  <path
     d="m 418.4779,212.6976 c 0,3e-4 0,3e-4 0,3e-4 -5.0633,0 -9.7455,-2.7028 -12.2754,-7.0877 -1.2425,-2.151 -1.8984,-4.5995 -1.8984,-7.0861 0,-2.4865 0.6559,-4.9351 1.8984,-7.0877 2.5299,-4.3832 7.2121,-7.0861 12.2754,-7.0861 0,0 0,0 0,0 v 14.1738 z"
     style="fill:none;fill-rule:evenodd;stroke:#000000;stroke-width:0.56690001;stroke-linecap:square;stroke-linejoin:miter;stroke-dasharray:none"
     id="path839"
     inkscape:connector-curvature="0" />
  <path
     d="m 438.6305,213.493 c -5.0632,3e-4 -9.7455,-2.7025 -12.2754,-7.0874 -1.2424,-2.151 -1.8984,-4.5995 -1.8984,-7.0861 0,-2.4865 0.656,-4.9351 1.8984,-7.0877 2.5299,-4.3832 7.2122,-7.0861 12.2754,-7.0861 v 14.1738 z"
     style="fill:none;fill-rule:evenodd;stroke:#000000;stroke-width:0.56690001;stroke-linecap:square;stroke-linejoin:miter;stroke-dasharray:none"
     id="path841"
     inkscape:connector-curvature="0" />
  <path
     d="m 422.4081,79.1269 c -3e-4,0 -3e-4,0 -3e-4,0 0,-5.0633 2.7012,-9.7438 7.0861,-12.2755 2.1526,-1.2424 4.6012,-1.8983 7.0877,-1.8983 2.4866,0 4.9352,0.6559 7.0878,1.8983 4.3832,2.5297 7.086,7.2122 7.086,12.2755 h -14.1738 z"
     style="fill:none;fill-rule:evenodd;stroke:#000000;stroke-width:0.56690001;stroke-linecap:square;stroke-linejoin:miter;stroke-dasharray:none"
     id="path843"
     inkscape:connector-curvature="0" />
  <path
     d="m 421.6124,99.8099 c -2e-4,-3e-4 -2e-4,-3e-4 -2e-4,-3e-4 0,-5.0633 2.7011,-9.7438 7.086,-12.2755 2.1526,-1.2421 4.6012,-1.898 7.0878,-1.898 2.4865,0 4.9351,0.6559 7.0877,1.8983 4.3832,2.5297 7.086,7.2122 7.086,12.2755 H 435.786 Z"
     style="fill:none;fill-rule:evenodd;stroke:#000000;stroke-width:0.56690001;stroke-linecap:square;stroke-linejoin:miter;stroke-dasharray:none"
     id="path845"
     inkscape:connector-curvature="0" />
  <path
     d="m 421.6124,117.3107 c -2e-4,0 -2e-4,0 -2e-4,0 0,-5.0633 2.7011,-9.7438 7.086,-12.2755 2.1526,-1.2424 4.6012,-1.8983 7.0878,-1.8983 2.4865,0 4.9351,0.6559 7.0877,1.8983 4.3832,2.5297 7.086,7.2122 7.086,12.2755 H 435.786 Z"
     style="fill:none;fill-rule:evenodd;stroke:#000000;stroke-width:0.56690001;stroke-linecap:square;stroke-linejoin:miter;stroke-dasharray:none"
     id="path847"
     inkscape:connector-curvature="0" />
  <path
     d="m 420.817,137.9934 c -2e-4,-5.0633 2.7026,-9.7458 7.0875,-12.2754 2.1509,-1.2425 4.5995,-1.8984 7.0861,-1.8984 2.4865,0 4.9351,0.6559 7.0877,1.8984 4.3849,2.5316 7.086,7.2121 7.086,12.2754 0,0 0,0 0,0 h -14.1737 z"
     style="fill:none;fill-rule:evenodd;stroke:#000000;stroke-width:0.56690001;stroke-linecap:square;stroke-linejoin:miter;stroke-dasharray:none"
     id="path849"
     inkscape:connector-curvature="0" />
  <g
     id="g1480"
     transform="translate(-37.249454,62.777052)">
    <path
       d="m 459.5906,80.551008 v 30.826272 2.58283 h 9.99112 58.09641 9.99733 v -2.58283 -30.826272 z"
       style="fill:#ffffff;fill-opacity:0;fill-rule:evenodd;stroke:#000000;stroke-width:0.62786758;stroke-linecap:butt;stroke-linejoin:miter;stroke-miterlimit:4;stroke-dasharray:none"
       id="path1461"
       inkscape:connector-curvature="0" />
    <path
       d="m 471.71073,103.4678 a 2.8345,2.8345 0 0 1 -2.8345,2.8345 2.8345,2.8345 0 1 1 2.8345,-2.8345 z"
       style="fill:#ffffff;fill-opacity:0;fill-rule:evenodd;stroke:#000000;stroke-width:0.75590551;stroke-linecap:butt;stroke-linejoin:miter;stroke-miterlimit:4;stroke-dasharray:none"
       id="path1463"
       inkscape:connector-curvature="0" />
    <path
       d="m 531.22553,103.4721 a 2.8345,2.8345 0 0 1 -2.8345,2.8345 2.8345,2.8345 0 1 1 2.8345,-2.8345 z"
       style="fill:#ffffff;fill-opacity:0;fill-rule:evenodd;stroke:#000000;stroke-width:0.75590551;stroke-linecap:butt;stroke-linejoin:miter;stroke-miterlimit:4;stroke-dasharray:none"
       id="path1465"
       inkscape:connector-curvature="0" />
  </g>
  <g
     id="g1772">
    <path
       inkscape:connector-curvature="0"
       id="path825"
       style="fill:#ffffff;fill-opacity:0;fill-rule:evenodd;stroke:#000000;stroke-width:0.56690001;stroke-linecap:butt;stroke-linejoin:miter;stroke-dasharray:none"
       d="m 166.18784,171.88939 v -13.1893 h 47.3292 v 13.1893 z" />
    <rect
       y="43.730007"
       x="138.37152"
       height="150.33794"
       width="102.94444"
       id="rect1722"
       style="fill:none;fill-opacity:1;stroke:#000000;stroke-width:0.8840369;stroke-linecap:square;stroke-linejoin:miter;stroke-miterlimit:4;stroke-dasharray:none;stroke-dashoffset:0;stroke-opacity:1" />
    <circle
       r="4.420589"
       cy="100.588"
       cx="229.44553"
       id="path1724"
       style="fill:none;fill-opacity:1;stroke:#000000;stroke-width:0.75599998;stroke-linecap:square;stroke-linejoin:miter;stroke-miterlimit:4;stroke-dasharray:none;stroke-dashoffset:0;stroke-opacity:1" />
    <circle
       style="fill:none;fill-opacity:1;stroke:#000000;stroke-width:0.75599998;stroke-linecap:square;stroke-linejoin:miter;stroke-miterlimit:4;stroke-dasharray:none;stroke-dashoffset:0;stroke-opacity:1"
       id="circle1726"
       cx="150.26556"
       cy="100.59853"
       r="4.420589" />
    <circle
       r="4.420589"
       cy="58.466068"
       cx="229.4252"
       id="circle1728"
       style="fill:none;fill-opacity:1;stroke:#000000;stroke-width:0.75599998;stroke-linecap:square;stroke-linejoin:miter;stroke-miterlimit:4;stroke-dasharray:none;stroke-dashoffset:0;stroke-opacity:1" />
    <circle
       style="fill:none;fill-opacity:1;stroke:#000000;stroke-width:0.75599998;stroke-linecap:square;stroke-linejoin:miter;stroke-miterlimit:4;stroke-dasharray:none;stroke-dashoffset:0;stroke-opacity:1"
       id="circle1730"
       cx="150.30579"
       cy="58.464638"
       r="4.420589" />
  </g>
  <path
     inkscape:connector-curvature="0"
     style="opacity:0.7;fill:none;fill-opacity:1;stroke:#000000;stroke-width:0.75590551;stroke-miterlimit:4;stroke-dasharray:none;stroke-opacity:1"
     d="m 299.82702,287.63486 h -0.0507 a 5.6706644,5.6706644 0 0 0 -5.61921,-4.959 5.6706644,5.6706644 0 0 0 -5.62099,4.959 h -0.0507 v 0.71093 46.31252 h 0.008 a 5.6706644,5.6706644 0 0 0 -0.008,0.11527 5.6706644,5.6706644 0 0 0 5.67178,5.66994 5.6706644,5.6706644 0 0 0 5.67001,-5.66994 5.6706644,5.6706644 0 0 0 -0.004,-0.11527 h 0.004 v -46.31252 z"
     id="path1763" />
  <g
     id="g1821"
     transform="translate(140.71425,23.334524)">
    <circle
       r="5.4867349"
       cy="288.14957"
       cx="334.09259"
       id="path1793"
       style="fill:none;fill-opacity:1;stroke:#000000;stroke-width:0.74306542;stroke-linecap:square;stroke-linejoin:miter;stroke-miterlimit:4;stroke-dasharray:none;stroke-dashoffset:0;stroke-opacity:1" />
    <circle
       style="fill:none;fill-opacity:1;stroke:#000000;stroke-width:0.74306542;stroke-linecap:square;stroke-linejoin:miter;stroke-miterlimit:4;stroke-dasharray:none;stroke-dashoffset:0;stroke-opacity:1"
       id="circle1797"
       cx="334.09259"
       cy="334.96207"
       r="5.4867349" />
  </g>
  <rect
     y="256.23022"
     x="423.33554"
     height="119.96099"
     width="102.94444"
     id="rect1801"
     style="fill:none;fill-opacity:1;stroke:#000000;stroke-width:0.78968906;stroke-linecap:square;stroke-linejoin:miter;stroke-miterlimit:4;stroke-dasharray:none;stroke-dashoffset:0;stroke-opacity:1" />
</svg>
